<svg width="22" height="14" viewBox="0 0 22 14" fill="none" xmlns="http://www.w3.org/2000/svg">
<path d="M19.1 11.95C19.3833 12.1 19.6333 12.0667 19.85 11.85C20.0667 11.6333 20.1 11.3833 19.95 11.1L18.5 8.4L17.45 11.1L19.1 11.95ZM14.1 11H15.3L17.7 5.05C17.75 4.91667 17.7375 4.80417 17.6625 4.7125C17.5875 4.62083 17.5 4.55 17.4 4.5L15.4 3.7C15.25 3.65 15.1042 3.66667 14.9625 3.75C14.8208 3.83333 14.7333 3.95 14.7 4.1L14.1 11ZM6.7 11H7.9L7.3 4.1C7.26667 3.91667 7.17917 3.79167 7.0375 3.725C6.89583 3.65833 6.75 3.65 6.6 3.7L4.6 4.5C4.46667 4.55 4.37083 4.62083 4.3125 4.7125C4.25417 4.80417 4.25 4.91667 4.3 5.05L6.7 11ZM2.9 11.95L4.55 11.1L3.5 8.4L2.05 11.1C1.9 11.3833 1.93333 11.6333 2.15 11.85C2.36667 12.0667 2.61667 12.1 2.9 11.95ZM9.9 11H12.1L12.85 2.55C12.8833 2.4 12.8458 2.27083 12.7375 2.1625C12.6292 2.05417 12.5 2 12.35 2H9.65C9.51667 2 9.39583 2.05417 9.2875 2.1625C9.17917 2.27083 9.13333 2.4 9.15 2.55L9.9 11ZM2.45 14C1.75 14 1.16667 13.7375 0.7 13.2125C0.233333 12.6875 0 12.0667 0 11.35C0 11.15 0.0291667 10.9542 0.0875 10.7625C0.145833 10.5708 0.216667 10.3833 0.3 10.2L2.5 6C2.26667 5.33333 2.275 4.675 2.525 4.025C2.775 3.375 3.21667 2.91667 3.85 2.65L5.85 1.85C6.08333 1.76667 6.31667 1.70833 6.55 1.675C6.78333 1.64167 7.01667 1.65 7.25 1.7C7.48333 1.21667 7.80833 0.8125 8.225 0.4875C8.64167 0.1625 9.11667 0 9.65 0H12.35C12.8833 0 13.3583 0.1625 13.775 0.4875C14.1917 0.8125 14.5167 1.21667 14.75 1.7C14.9833 1.66667 15.2167 1.6625 15.45 1.6875C15.6833 1.7125 15.9167 1.76667 16.15 1.85L18.15 2.65C18.8167 2.91667 19.2833 3.375 19.55 4.025C19.8167 4.675 19.8 5.31667 19.5 5.95L21.7 10.15C21.8 10.3333 21.875 10.525 21.925 10.725C21.975 10.925 22 11.1333 22 11.35C22 12.1 21.7458 12.7292 21.2375 13.2375C20.7292 13.7458 20.1 14 19.35 14C19.1667 14 18.9833 13.9792 18.8 13.9375C18.6167 13.8958 18.4333 13.8333 18.25 13.75L16.7 13H5.25L3.85 13.75C3.63333 13.8667 3.40417 13.9375 3.1625 13.9625C2.92083 13.9875 2.68333 14 2.45 14Z" fill="white"/>
</svg>
